PathFileType	4	(X/Y/Z)	C:\Users\°ÂÌØÂü\Desktop\20210112\bx_n_0_902-Unnamed.trc
DataRate	CameraRate	NumFrames	NumMarkers	Units	OrigDataRate	OrigDataStartFrame	OrigNumFrames
50.00	50.00	       6	0	mm	50.00	53	       416
Frame#	Time	
		

53	1.040	-665.32135	116.14326	1852.07593	-717.52704	246.86758	575.40466	-687.25806	288.14548	1528.89087	-574.20959	216.37234	788.20850	-575.95142	-8.27069	798.79388	-673.82129	-77.55891	1534.12903	-677.52924	269.67017	741.64539	-689.72394	72.88425	571.23102	-662.62115	15.66463	517.79553	-717.09900	253.10968	641.17047				-668.17261	202.63223	532.72229	-758.02808	259.27432	502.49710	-517.64667	-73.08523	143.47894	-548.17389	-26.74881	164.43263	-793.56946	39.11174	175.20047	-719.77094	72.34013	216.46922	-600.18817	29.00949	165.92114	-674.88013	55.16306	156.48975	-795.64215	180.10081	185.08005	-764.36475	227.50726	206.13759	-589.06390	207.13228	173.76044	-882.42505	296.15695	144.76091	-552.61578	243.03540	166.04715	-652.34277	291.43591	157.19939	-615.18634	296.98788	158.61971	-528.19513	304.05179	146.62985				-650.53125	-75.12167	870.86670	-752.47430	-48.11003	487.96793	-757.39923	-19.00203	207.06619	-875.99792	-78.69180	141.55168				-672.62030	-65.40001	754.51532	-699.93085	-37.72506	613.31329	-708.91260	-34.94627	567.54688	-714.39026	150.05374	216.94370	-675.52185	165.51851	157.08763	-605.73920	-71.02599	159.57840	-647.63287	-65.41914	163.80215	-571.96387	107.65210	1354.99536										-578.12158	238.13577	1060.12659	-665.30743	283.78012	872.12671				-781.39740	96.13366	1062.57971	-579.00830	-9.22011	1051.09998	
54	1.060	-665.50555	116.03348	1852.07800	-717.63141	246.75015	575.37274	-687.41327	288.28555	1528.83997	-574.22400	216.37874	788.10406	-576.14087	-8.31828	798.61682	-674.11005	-77.56380	1534.11755	-677.44434	269.59647	741.64392	-690.40735	72.77428	570.49408	-662.53851	15.65582	517.89911	-717.14948	252.85562	640.91699				-668.01471	202.61522	532.60815	-758.13629	259.30936	502.48828	-517.70892	-72.91471	143.28874	-548.25470	-26.73359	164.51497	-793.36371	38.92130	175.12570	-719.75055	72.11287	216.78915	-600.06775	29.02573	165.88194	-674.71094	55.30750	156.55070	-795.64740	180.03789	185.03300	-764.25482	227.39525	206.10721	-589.15710	207.11386	173.96825	-882.50830	296.11615	144.58771	-552.61578	243.03540	166.04715	-652.34277	291.43591	157.19939	-615.18048	296.91907	158.43361	-528.37433	304.41965	146.52193				-650.50977	-75.10819	870.78302	-752.67535	-48.08765	487.90271	-757.34955	-18.95071	206.99153	-876.08313	-78.85428	141.48308				-672.57849	-65.53920	754.66974	-699.91925	-37.76253	613.25250	-708.85590	-35.00609	567.54993	-714.60809	150.07513	216.66478	-675.44464	165.66721	157.12778	-605.79785	-71.01772	159.49997	-647.69354	-65.54954	163.79692	-572.03235	107.64722	1355.01978										-578.22961	237.97643	1060.12268	-665.16248	283.76404	871.85742				-781.37714	96.07739	1062.66577	-579.00830	-9.22011	1051.09998	
55	1.080	-665.79626	115.85391	1852.11353	-717.59253	246.85493	575.40527	-687.56042	288.20789	1528.88635	-574.24719	216.36902	788.22046	-576.24103	-8.70922	798.73328	-674.33350	-77.95528	1534.03760	-677.55005	269.54419	741.84949	-689.81262	72.49085	570.96967	-662.52820	15.59486	517.74664	-717.23676	252.93111	641.03986				-668.05298	202.48607	532.79333	-758.17236	259.05804	502.34756	-517.64667	-73.08523	143.47894	-548.32648	-26.67628	164.45708	-793.40924	38.98516	175.11440	-719.68549	72.09791	216.66966	-600.20483	28.91860	165.92264	-674.92780	55.24797	156.37592	-795.59711	180.11916	185.13220	-764.42224	227.62192	206.11223	-588.98022	207.16869	173.89648	-882.53961	295.90964	144.64333	-552.67590	243.00937	165.94772	-652.41663	291.42764	157.30051	-615.06854	297.11166	158.75461	-528.21368	304.40866	146.77199				-650.57117	-75.26449	870.90009	-752.47516	-47.98867	487.68112	-757.33252	-18.82148	207.00320	-875.93188	-78.80463	141.23126				-672.63611	-65.50085	754.56213	-699.70007	-37.86919	613.27588	-708.85590	-35.00609	567.54993	-714.51196	150.09058	216.80173	-675.52185	165.51851	157.08763	-605.74945	-70.90457	159.44373	-647.75006	-65.57456	163.85132	-572.24457	107.71678	1355.11011										-578.22119	237.89323	1060.24011	-665.34674	283.89618	872.32843				-781.28937	95.87418	1062.37170	-579.04749	-9.26408	1051.20544	
56	1.100	-666.09491	115.65560	1852.16724	-717.63141	246.75015	575.37274	-687.56952	288.09851	1528.94250	-574.20959	216.37234	788.20850	-576.10559	-8.50128	798.72949	-674.62341	-77.92134	1534.06116	-677.58722	269.71198	741.94922	-690.11444	72.42442	570.74487	-662.53851	15.65582	517.89911	-717.14948	252.85562	640.91699				-668.05298	202.48607	532.79333	-758.04211	259.04102	502.49780	-517.72314	-72.93130	143.29219	-548.26758	-26.65917	164.60538	-793.66541	39.25618	175.13181	-719.77094	72.34013	216.46922	-600.20465	28.95821	165.72559	-674.86078	55.29903	156.67786	-795.61145	180.14214	185.16203	-764.37146	227.50362	206.12714	-589.08350	207.14084	173.89941	-882.47406	296.15048	144.65424	-552.61578	243.03540	166.04715	-652.45123	291.46823	157.21196	-615.14783	297.01553	158.50366	-528.19232	304.29510	146.74269				-650.65155	-75.44683	871.05035	-752.62793	-48.15187	487.87775	-757.28418	-18.98673	207.09621	-875.95856	-78.73984	141.27766				-672.76337	-65.67923	754.59851	-699.73383	-37.87109	613.13342	-708.94464	-34.95542	567.46887	-714.60547	150.06105	216.93462	-675.59637	165.70094	157.19662	-605.71796	-70.96768	159.41513	-647.71033	-65.42678	163.72798	-572.20306	107.69780	1355.27856										-578.14948	237.73077	1060.28027	-665.34674	283.89618	872.32843				-781.30280	95.70847	1062.43835	-579.04346	-9.38248	1051.35803	
57	1.120	-666.55481	115.48632	1852.11316	-717.77240	246.63417	575.28223	-687.84637	287.98557	1528.94604	-574.28638	216.31758	788.42670	-576.22076	-8.58203	798.85687	-674.93677	-78.12765	1534.07715	-677.48083	269.69464	741.84137	-689.83307	73.10005	571.00464	-662.73053	15.51509	517.84418	-717.07202	252.79137	640.91473				-668.17261	202.63223	532.72229	-758.17822	259.04239	502.37341	-517.67078	-73.01729	143.40648	-548.33905	-26.69218	164.57253	-793.47156	39.02767	175.03304	-719.64825	72.21384	216.40146	-600.14984	28.96361	165.88226	-674.70032	55.45658	156.69562	-795.61572	180.26320	185.04182	-764.35968	227.47017	206.10803	-588.99829	207.10831	173.82741	-882.53375	296.11417	144.68033	-552.67590	243.00937	165.94772	-652.34277	291.43591	157.19939	-615.24335	297.09372	158.65199	-528.16339	304.10040	146.52217				-650.68011	-75.56635	870.92230	-752.42041	-48.29080	488.00610	-757.43756	-18.94112	207.15723	-875.93561	-78.84620	141.20265				-672.76337	-65.67923	754.59851	-699.67419	-38.03433	613.24780	-708.76331	-35.00646	567.43536	-714.74390	150.09952	216.77122	-675.66815	165.55583	157.14955	-605.65924	-70.97596	159.49355	-647.60645	-65.34996	163.72035	-572.30957	107.68729	1355.34851										-578.51703	237.57597	1060.21094	-665.55542	283.61072	872.21173				-781.43396	95.81580	1062.29712	-579.25104	-9.64595	1051.45251	
58	1.140	-666.81738	115.50660	1852.11707	-717.77240	246.63417	575.28223	-688.04779	287.76416	1528.88672	-574.27063	216.30798	788.22882	-576.17291	-8.81527	798.76575	-675.16180	-78.04538	1533.96545	-677.75775	269.03891	741.95551	-689.97180	72.31427	570.93164	-662.53497	15.43181	517.77386	-717.17792	252.85881	641.06158				-668.05298	202.48607	532.79333	-758.03693	259.10092	502.42987	-517.70892	-72.91471	143.28874	-548.28131	-26.77503	164.45522	-793.48523	39.07259	174.96638	-719.87653	72.28743	216.78673	-600.22308	28.93458	165.86562	-674.86078	55.29903	156.67786	-795.64215	180.10081	185.08005	-764.42914	227.49440	205.98857	-588.98547	207.23625	173.72038	-882.51794	296.10651	144.56905	-552.61578	243.03540	166.04715	-652.52502	291.45996	157.31308	-615.25519	296.97504	158.50801	-528.24622	304.03519	146.54639				-650.75983	-75.42635	870.92639	-752.50482	-48.15729	487.88721	-757.34955	-18.95071	206.99153	-875.87335	-78.57735	141.34627				-672.71057	-65.68361	754.67633	-699.66241	-37.93460	613.25891	-708.90063	-34.99428	567.37109	-714.48450	150.16217	216.51492	-675.54327	165.76453	157.04718	-605.70380	-70.92596	159.45323	-647.67871	-65.49068	163.85782	-572.78589	107.44843	1355.17798										-578.45776	237.48441	1060.25269	-665.55542	283.61072	872.21173				-781.31281	95.69508	1062.24316	-579.25104	-9.64595	1051.45251	
